<?xml version="1.0" standalone="no"?>
<!DOCTYPE svg PUBLIC "-//W3C//DTD SVG 20010904//EN"
 "http://www.w3.org/TR/2001/REC-SVG-20010904/DTD/svg10.dtd">
<svg version="1.0" xmlns="http://www.w3.org/2000/svg"
 width="310.000000pt" height="310.000000pt" viewBox="0 0 310.000000 310.000000"
 preserveAspectRatio="xMidYMid meet">
<metadata>
Created by potrace 1.11, written by Peter Selinger 2001-2013
</metadata>
<g transform="translate(0.000000,310.000000) scale(0.100000,-0.100000)"
fill="#000000" stroke="none">
<path d="M814 3053 c2 -27 7 -59 10 -73 3 -14 8 -48 11 -77 l6 -52 -33 10
c-18 5 -44 11 -58 14 -14 3 -61 14 -105 25 -44 12 -93 23 -110 26 -16 3 -37 8
-45 11 -8 3 -22 7 -30 9 -34 6 -78 16 -130 29 -30 8 -66 16 -80 19 -14 3 -40
9 -58 15 -18 5 -35 10 -37 10 -3 0 -30 5 -61 11 -62 13 -70 11 -56 -17 6 -10
20 -40 33 -68 23 -51 67 -147 158 -339 28 -59 51 -110 51 -111 0 -2 26 -59 59
-127 32 -68 70 -148 84 -178 13 -30 44 -95 67 -145 23 -49 53 -115 67 -145 14
-30 52 -111 85 -179 32 -69 61 -135 64 -148 3 -12 12 -27 20 -34 8 -6 14 -16
14 -21 0 -9 17 -48 88 -198 20 -41 36 -77 37 -80 2 -6 34 -75 111 -238 30 -62
54 -115 54 -116 0 -2 26 -59 59 -127 97 -204 109 -235 116 -280 3 -24 10 -69
15 -99 5 -30 11 -72 14 -92 l6 -38 -168 -1 c-92 0 -220 -1 -284 -1 -79 0 -118
-3 -120 -11 -2 -7 -4 -61 -3 -122 l1 -110 875 -3 875 -2 -1 122 0 123 -268 3
c-249 2 -268 4 -263 20 2 9 7 40 11 67 3 28 7 61 10 75 2 14 7 46 10 72 3 26
23 86 46 135 22 48 52 113 66 143 13 30 31 67 39 82 8 14 14 33 14 41 0 9 4
17 8 19 4 2 21 32 36 68 16 36 43 94 60 130 16 36 31 67 31 70 1 3 17 37 35
75 18 39 34 72 35 75 1 3 16 36 33 74 18 38 32 70 32 72 0 1 27 59 60 129 33
70 60 128 60 130 0 1 23 52 51 111 28 60 58 125 66 144 8 19 21 46 28 60 7 14
31 66 53 115 22 50 56 126 77 170 80 173 94 203 139 299 25 54 46 104 46 111
0 7 7 18 15 25 8 7 15 18 15 25 0 7 9 30 19 52 33 65 91 194 91 203 0 4 -26 1
-57 -7 -32 -8 -65 -16 -73 -18 -8 -2 -33 -8 -55 -13 -22 -6 -51 -13 -65 -15
-14 -3 -43 -10 -65 -15 -39 -11 -79 -20 -120 -27 -11 -2 -45 -11 -77 -19 -31
-8 -67 -17 -80 -20 -12 -2 -43 -9 -68 -16 -52 -14 -90 -22 -107 -23 -7 0 -13
-3 -13 -7 0 -6 -18 -6 -51 -1 -3 1 1 40 8 89 7 48 14 102 17 120 l3 32 -729 0
-730 0 6 -47z m-355 -354 c94 -23 114 -28 149 -35 13 -3 60 -14 105 -25 45
-11 96 -23 112 -26 45 -8 65 -21 67 -46 0 -12 2 -26 3 -32 1 -5 5 -35 9 -65 5
-30 10 -64 12 -75 2 -11 6 -42 9 -68 3 -27 7 -52 9 -55 2 -4 6 -34 10 -67 3
-33 8 -71 11 -85 3 -14 7 -39 9 -55 3 -17 12 -80 21 -140 9 -61 18 -126 20
-145 3 -19 7 -51 11 -70 6 -34 9 -55 19 -133 3 -21 7 -48 10 -60 2 -12 7 -42
10 -67 3 -25 7 -56 10 -70 2 -14 6 -47 9 -73 3 -27 8 -53 11 -58 4 -5 3 -9 -2
-9 -4 1 -31 49 -60 108 -79 165 -410 844 -549 1127 -97 200 -117 245 -108 245
4 0 45 -9 93 -21z m2291 12 c0 -5 -22 -53 -49 -107 -51 -102 -234 -479 -266
-549 -11 -22 -24 -43 -29 -47 -6 -4 -8 -8 -4 -8 4 0 -33 -80 -81 -177 -49 -98
-111 -225 -139 -283 -153 -320 -153 -319 -148 -270 6 51 14 109 22 160 7 37 8
46 18 120 7 52 9 67 31 208 8 57 13 107 10 112 -3 5 -1 11 4 15 5 3 9 13 9 23
-1 9 5 53 12 97 7 44 14 91 15 105 1 14 5 39 9 55 3 17 8 50 11 75 3 25 8 59
11 75 3 17 7 46 9 65 2 19 6 46 9 60 3 14 7 47 11 75 9 84 10 84 85 100 8 2
51 12 95 24 44 11 91 22 105 25 14 2 57 12 95 21 39 10 81 19 93 20 13 2 26 6
30 9 9 9 32 7 32 -3z"/>
</g>
</svg>
